<?xml version="1.0" standalone="no"?>
<!DOCTYPE svg PUBLIC "-//W3C//DTD SVG 1.1//EN" "http://www.w3.org/Graphics/SVG/1.1/DTD/svg11.dtd" >
<svg viewBox="0 -410 2048 2048">
  <g transform="matrix(1 0 0 -1 0 1638)">
   <path fill="currentColor"
d="M336 748q100 100 118 115q45 38 97 59t103 21q86 0 148 -50t83 -145q103 120 174 157.5t146 37.5q73 0 129.5 -37.5t89.5 -122.5q22 -58 22 -182v-394q0 -86 13 -118q10 -22 37 -37.5t88 -15.5v-36h-452v36h19q59 0 92 23q23 16 33 51q4 17 4 97v394q0 112 -27 158
q-39 64 -125 64q-53 0 -106.5 -26.5t-129.5 -98.5l-2 -11l2 -43v-437q0 -94 10.5 -117t39.5 -38.5t99 -15.5v-36h-463v36q76 0 104.5 18t39.5 54q5 17 5 99v394q0 112 -33 161q-44 64 -123 64q-54 0 -107 -29q-83 -44 -128 -99v-491q0 -90 12.5 -117t37 -40.5t99.5 -13.5
v-36h-453v36q63 0 88 13.5t38 43t13 114.5v350q0 151 -9 195q-7 33 -22 45.5t-41 12.5q-28 0 -67 -15l-15 36l276 112h43v-195z" />
  </g>

</svg>
