<?xml version="1.0" standalone="no"?>
<!DOCTYPE svg PUBLIC "-//W3C//DTD SVG 1.1//EN" "http://www.w3.org/Graphics/SVG/1.1/DTD/svg11.dtd" >
<svg viewBox="0 -442 2048 2048">
  <g transform="matrix(1 0 0 -1 0 1638)">
   <path fill="currentColor"
d="M309 334q-84 41 -129 114.5t-45 162.5q0 136 102.5 234t262.5 98q131 0 227 -64h194q43 0 50 -2.5t10 -8.5q6 -9 6 -32q0 -26 -5 -36q-3 -5 -10.5 -8t-50.5 -3h-119q56 -72 56 -184q0 -128 -98 -219t-263 -91q-68 0 -139 20q-44 -38 -59.5 -66.5t-15.5 -48.5
q0 -17 16.5 -33t64.5 -23q28 -4 140 -7q206 -5 267 -14q93 -13 148.5 -69t55.5 -138q0 -113 -106 -212q-156 -146 -407 -146q-193 0 -326 87q-75 50 -75 104q0 24 11 48q17 37 70 103q7 9 102 108q-52 31 -73.5 55.5t-21.5 55.5q0 35 28.5 82t131.5 133zM483 895
q-74 0 -124 -59t-50 -181q0 -158 68 -245q52 -66 132 -66q76 0 125 57t49 179q0 159 -69 249q-51 66 -131 66zM299 0q-47 -51 -71 -95t-24 -81q0 -48 58 -84q100 -62 289 -62q180 0 265.5 63.5t85.5 135.5q0 52 -51 74q-52 22 -206 26q-225 6 -346 23z" />
  </g>

</svg>
